<svg width="512" height="512" viewBox="0 0 24 24" xmlns="http://www.w3.org/2000/svg" xmlns:xlink="http://www.w3.org/1999/xlink" id="Outline" overflow="hidden"><style>
.MsftOfcThm_Accent6_lumMod_25_Fill_v2 {
 fill:#1C2B12; 
}
</style>
<path d="M22.713 4.077C22.1435 3.39359 21.2996 2.99891 20.41 3L4.242 3 4.2 2.649C4.0221 1.1389 2.74254 0.000707378 1.222-7.05719e-08L1 0C0.447715 0 -2.22045e-16 0.447715 0 1 0 1.55228 0.447715 2 1 2L1.222 2C1.72897 2.00007 2.15568 2.37951 2.215 2.883L3.591 14.583C3.88669 17.1016 6.02107 19.0001 8.557 19L19 19C19.5523 19 20 18.5523 20 18 20 17.4477 19.5523 17 19 17L8.557 17C7.28875 16.9964 6.15975 16.1957 5.737 15L17.657 15C20.0764 15.0001 22.1488 13.268 22.578 10.887L23.363 6.533C23.5216 5.65844 23.2835 4.7586 22.713 4.077ZM21.4 6.178 20.614 10.532C20.3563 11.9623 19.1104 13.0022 17.657 13L5.419 13 4.478 5 20.41 5C20.9623 4.9967 21.4127 5.44173 21.416 5.99401 21.4163 6.0557 21.411 6.11729 21.4 6.178Z" class="MsftOfcThm_Accent6_lumMod_25_Fill_v2" fill="#1C2B12"/><circle cx="7" cy="22" r="2" class="MsftOfcThm_Accent6_lumMod_25_Fill_v2" fill="#1C2B12"/><circle cx="17" cy="22" r="2" class="MsftOfcThm_Accent6_lumMod_25_Fill_v2" fill="#1C2B12"/></svg>