<svg width="512" height="512" viewBox="0 0 24 24" xmlns="http://www.w3.org/2000/svg" xmlns:xlink="http://www.w3.org/1999/xlink" id="Layer_1" overflow="hidden"><style>
.MsftOfcThm_Accent6_lumMod_25_Fill_v2 {
 fill:#1C2B12; 
}
</style>
<path d="M13 1C13 0.447715 13.4477 -1.11022e-16 14 -1.11022e-16 19.5203 0.00606237 23.9939 4.47967 24 10 24 10.5523 23.5523 11 23 11 22.4477 11 22 10.5523 22 10 21.995 5.58378 18.4162 2.00496 14 2 13.4477 2 13 1.55228 13 1ZM14 6C16.2091 6 18 7.79086 18 10 18 10.5523 18.4477 11 19 11 19.5523 11 20 10.5523 20 10 19.9967 6.68766 17.3123 4.00331 14 4 13.4477 4 13 4.44772 13 5 13 5.55228 13.4477 6 14 6ZM23.093 16.739C24.2996 17.9489 24.2996 19.9071 23.093 21.117L22.183 22.166C13.993 30.007-5.937 10.082 1.783 1.866L2.933 0.866C4.14358-0.306197 6.0713-0.288377 7.26 0.906 7.291 0.937 9.144 3.344 9.144 3.344 10.2862 4.54392 10.2831 6.42982 9.137 7.626L7.979 9.082C9.27333 12.2269 11.7677 14.7263 14.91 16.027L16.375 14.862C17.5713 13.7168 19.4565 13.7142 20.656 14.856 20.656 14.856 23.062 16.708 23.093 16.739ZM21.717 18.193C21.717 18.193 19.324 16.352 19.293 16.321 18.8642 15.8958 18.1728 15.8958 17.744 16.321 17.717 16.349 15.7 17.956 15.7 17.956 15.4235 18.1761 15.0513 18.2339 14.721 18.108 10.6428 16.5896 7.42441 13.3759 5.9 9.3 5.76398 8.96497 5.81943 8.5826 6.045 8.3 6.045 8.3 7.652 6.282 7.679 6.256 8.10417 5.82719 8.10417 5.13581 7.679 4.707 7.648 4.677 5.807 2.282 5.807 2.282 5.37288 1.89274 4.71045 1.90985 4.297 2.321L3.147 3.321C-2.495 10.105 14.776 26.418 20.721 20.8L21.632 19.75C22.0758 19.3389 22.1134 18.6499 21.717 18.193Z" class="MsftOfcThm_Accent6_lumMod_25_Fill_v2" fill="#1C2B12"/></svg>