<svg width="512" height="512" viewBox="0 0 24 24" xmlns="http://www.w3.org/2000/svg" xmlns:xlink="http://www.w3.org/1999/xlink" id="Layer_1" overflow="hidden"><path d="M12 24C5.37258 24-1.77636e-15 18.6274 0 12-3.55271e-15 5.37258 5.37258-1.77636e-15 12 0 18.6274-1.77636e-15 24 5.37258 24 12 23.9928 18.6244 18.6244 23.9928 12 24ZM12 2C6.47715 2 2 6.47715 2 12 2 17.5228 6.47715 22 12 22 17.5228 22 22 17.5228 22 12 21.9939 6.47967 17.5203 2.00606 12 2ZM17.666 15.746C18.0786 15.3787 18.1153 14.7466 17.748 14.334 17.3807 13.9214 16.7486 13.8847 16.336 14.252 15.1135 15.2813 13.5945 15.8936 12 16 10.4064 15.8937 8.88822 15.2821 7.666 14.254 7.254 13.8862 6.62182 13.922 6.254 14.334 5.88618 14.746 5.922 15.3782 6.334 15.746 7.92187 17.1025 9.91422 17.8951 12 18 14.0858 17.8951 16.0781 17.1025 17.666 15.746ZM6 10C6 11 6.895 11 8 11 9.105 11 10 11 10 10 10 8.89543 9.10457 8 8 8 6.89543 8 6 8.89543 6 10ZM14 10C14 11 14.895 11 16 11 17.105 11 18 11 18 10 18 8.89543 17.1046 8 16 8 14.8954 8 14 8.89543 14 10Z"/></svg>