<svg width="512" height="512" viewBox="0 0 24 24" xmlns="http://www.w3.org/2000/svg" xmlns:xlink="http://www.w3.org/1999/xlink" id="Outline" overflow="hidden"><style>
.MsftOfcThm_Accent6_lumMod_25_Fill_v2 {
 fill:#1C2B12; 
}
</style>
<path d="M23.707 22.293 17.738 16.324C21.2395 12.0416 20.6064 5.73148 16.324 2.22999 12.0416-1.2715 5.73148-0.638429 2.22999 3.64399-1.2715 7.92641-0.638427 14.2365 3.64399 17.738 7.33264 20.754 12.6354 20.754 16.324 17.738L22.293 23.707C22.6903 24.0907 23.3233 24.0797 23.707 23.6824 24.0813 23.2949 24.0813 22.6805 23.707 22.293ZM10 18C5.58172 18 2 14.4183 2 10 2 5.58172 5.58172 2 10 2 14.4183 2 18 5.58172 18 10 17.995 14.4162 14.4162 17.995 10 18Z" class="MsftOfcThm_Accent6_lumMod_25_Fill_v2" fill="#1C2B12"/></svg>