<svg width="512" height="512" viewBox="0 0 24 24" xmlns="http://www.w3.org/2000/svg" xmlns:xlink="http://www.w3.org/1999/xlink" id="Layer_1" overflow="hidden"><style>
.MsftOfcThm_Accent6_lumMod_25_Fill_v2 {
 fill:#1C2B12; 
}
</style>
<path d="M8.965 24 4 24C1.79086 24 -4.44089e-16 22.2091 -4.44089e-16 20L0 15C-8.88178e-16 12.7909 1.79086 11 4 11L12.857 11C13.9578 11.0005 14.9781 11.5767 15.547 12.519L18.764 8.984C19.8824 7.75411 21.7861 7.66375 23.016 8.78218 23.0167 8.78278 23.0173 8.78339 23.018 8.784 24.2316 9.89895 24.3282 11.7807 23.235 13.014L16.435 20.651C14.536 22.7808 11.8185 23.9992 8.965 24ZM4 13C2.89543 13 2 13.8954 2 15L2 20C2 21.1046 2.89543 22 4 22L8.965 22C11.2463 21.9991 13.4189 21.0249 14.937 19.322L21.742 11.684C22.1096 11.27 22.0775 10.6378 21.67 10.263 21.4708 10.0839 21.2096 9.98958 20.942 10 20.674 10.0113 20.4218 10.1299 20.242 10.329L15.816 15.2C15.4201 16.2957 14.453 17.0845 13.3 17.252L8.139 17.99C7.59224 18.0684 7.08542 17.6888 7.007 17.142 6.92858 16.5952 7.30824 16.0884 7.855 16.01L13.017 15.273C13.6416 15.1857 14.0772 14.6085 13.9899 13.9839 13.9109 13.419 13.4273 12.9991 12.857 13ZM11 9.074C10.5468 9.07522 10.1067 8.92137 9.753 8.638 8.041 7.264 6 5.2 6 3.2 5.94889 1.48947 7.28973 0.0592336 9 4.76837e-08 9.74734 0.00291087 10.4644 0.295818 11 0.817 11.5356 0.295818 12.2527 0.00291086 13 3.14713e-08 14.7103 0.0592336 16.0511 1.48947 16 3.2 16 5.2 13.959 7.264 12.246 8.639 11.8924 8.92179 11.4528 9.07527 11 9.074ZM9 2C8.39536 2.06067 7.95064 2.59433 8 3.2 8 4.1 9.151 5.59 11.006 7.079 12.849 5.59 14 4.1 14 3.2 14.0494 2.59433 13.6046 2.06067 13 2 12.3954 2.06067 11.9506 2.59433 12 3.2 12 3.75228 11.5523 4.2 11 4.2 10.4477 4.2 10 3.75228 10 3.2 10.0494 2.59433 9.60464 2.06067 9 2Z" class="MsftOfcThm_Accent6_lumMod_25_Fill_v2" fill="#1C2B12"/></svg>