<svg width="512" height="512" viewBox="0 0 24 24" xmlns="http://www.w3.org/2000/svg" xmlns:xlink="http://www.w3.org/1999/xlink" id="Outline" overflow="hidden"><style>
.MsftOfcThm_Accent6_lumMod_25_Fill_v2 {
 fill:#1C2B12; 
}
</style>
<path d="M9 12C12.3137 12 15 9.31371 15 6 15 2.68629 12.3137-1.77636e-15 9 -8.88178e-16 5.68629-2.66454e-15 3 2.68629 3 6 3.00331 9.31234 5.68766 11.9967 9 12ZM9 2C11.2091 2 13 3.79086 13 6 13 8.20914 11.2091 10 9 10 6.79086 10 5 8.20914 5 6 5 3.79086 6.79086 2 9 2Z" class="MsftOfcThm_Accent6_lumMod_25_Fill_v2" fill="#1C2B12"/><path d="M9 14C4.03195 14.0061 0.00606096 18.0319 0 23 0 23.5523 0.447715 24 1 24 1.55228 24 2 23.5523 2 23 2 19.134 5.13401 16 9 16 12.866 16 16 19.134 16 23 16 23.5523 16.4477 24 17 24 17.5523 24 18 23.5523 18 23 17.9939 18.0319 13.9681 14.0061 9 14Z" class="MsftOfcThm_Accent6_lumMod_25_Fill_v2" fill="#1C2B12"/><path d="M22 7.875C20.8414 7.93272 19.9474 8.91613 20 10.075 20.0526 8.91613 19.1586 7.93272 18 7.875 16.8414 7.93272 15.9474 8.91613 16 10.075 16 11.805 18.256 13.832 19.38 14.734 19.7424 15.0242 20.2576 15.0242 20.62 14.734 21.744 13.834 24 11.805 24 10.075 24.0526 8.91613 23.1586 7.93272 22 7.875Z" class="MsftOfcThm_Accent6_lumMod_25_Fill_v2" fill="#1C2B12"/></svg>