<svg width="512" height="512" viewBox="0 0 24 24" xmlns="http://www.w3.org/2000/svg" xmlns:xlink="http://www.w3.org/1999/xlink" id="Outline" overflow="hidden"><style>
.MsftOfcThm_Accent6_lumMod_25_Fill_v2 {
 fill:#1C2B12; 
}
</style>
<path d="M23.121 9.069 15.536 1.483C13.5814-0.465835 10.4186-0.465835 8.464 1.483L0.879 9.069C0.314287 9.6301-0.00226729 10.3939 8.10623e-09 11.19L0 21.007C-4.44089e-16 22.6639 1.34315 24.007 3 24.007L21 24.007C22.6569 24.007 24 22.6639 24 21.007L24 11.19C24.0023 10.3939 23.6857 9.6301 23.121 9.069ZM15 22.007 9 22.007 9 18.073C9 16.4161 10.3431 15.073 12 15.073 13.6569 15.073 15 16.4161 15 18.073ZM22 21.007C22 21.5593 21.5523 22.007 21 22.007L17 22.007 17 18.073C17 15.3116 14.7614 13.073 12 13.073 9.23858 13.073 7 15.3116 7 18.073L7 22.007 3 22.007C2.44772 22.007 2 21.5593 2 21.007L2 11.19C2.00093 10.925 2.10619 10.671 2.293 10.483L9.878 2.9C11.0515 1.73192 12.9485 1.73192 14.122 2.9L21.707 10.486C21.8931 10.6732 21.9983 10.926 22 11.19Z" class="MsftOfcThm_Accent6_lumMod_25_Fill_v2" fill="#1C2B12"/></svg>