<svg viewBox="0 0 24 24" xmlns="http://www.w3.org/2000/svg" xmlns:xlink="http://www.w3.org/1999/xlink" id="Layer_1" overflow="hidden"><path d="M16.5 2.5C16.5 1.119 17.619 0 19 0 20.381 0 21.5 1.119 21.5 2.5 21.5 3.881 20.381 5 19 5 17.619 5 16.5 3.881 16.5 2.5ZM23.977 16.628 23.101 9.62C22.843 7.557 21.08 6 19 6 18.039 6 17.102 6.338 16.361 6.952 15.936 7.305 15.878 7.935 16.23 8.36 16.584 8.786 17.213 8.844 17.638 8.491 18.02 8.175 18.503 8 18.999 8 20.072 8 20.982 8.803 21.115 9.868L21.991 16.876C22.027 17.165 21.941 17.443 21.748 17.662 21.556 17.88 21.29 18 20.998 18L17.998 18C17.446 18 16.998 18.447 16.998 19 16.998 19.553 17.446 20 17.998 20L19.998 20 19.998 23C19.998 23.553 20.446 24 20.998 24 21.55 24 21.998 23.553 21.998 23L21.998 19.811C22.472 19.642 22.907 19.37 23.247 18.985 23.816 18.339 24.081 17.481 23.975 16.628ZM5 5C6.381 5 7.5 3.881 7.5 2.5 7.5 1.119 6.381 0 5 0 3.619 0 2.5 1.119 2.5 2.5 2.5 3.881 3.619 5 5 5ZM7.333 6.228C6.905 6.078 6.456 6 6 6L4 6C1.794 6 0 7.794 0 10L0 13C0 14.474 0.81 15.75 2 16.444L2 23C2 23.553 2.448 24 3 24 3.552 24 4 23.553 4 23L4 17 5 17C5.552 17 6 16.553 6 16 6 15.447 5.552 15 5 15L4 15C2.897 15 2 14.103 2 13L2 10C2 8.897 2.897 8 4 8L6 8C6.229 8 6.453 8.038 6.667 8.114 7.189 8.295 7.759 8.023 7.943 7.504 8.127 6.983 7.854 6.412 7.333 6.228ZM12 10C13.381 10 14.5 8.881 14.5 7.5 14.5 6.119 13.381 5 12 5 10.619 5 9.5 6.119 9.5 7.5 9.5 8.881 10.619 10 12 10ZM16 14 16 17C16 17.883 15.609 18.67 15 19.22L15 23C15 23.553 14.552 24 14 24 13.448 24 13 23.553 13 23L13 20 11 20 11 23C11 23.553 10.552 24 10 24 9.448 24 9 23.553 9 23L9 19.22C8.391 18.671 8 17.883 8 17L8 14C8 12.346 9.346 11 11 11L13 11C14.654 11 16 12.346 16 14ZM13 18C13.551 18 14 17.552 14 17L14 14C14 13.448 13.551 13 13 13L11 13C10.449 13 10 13.448 10 14L10 17C10 17.552 10.449 18 11 18L13 18Z"/></svg>