<svg width="512" height="512" viewBox="0 0 24 24" xmlns="http://www.w3.org/2000/svg" xmlns:xlink="http://www.w3.org/1999/xlink" id="Outline" overflow="hidden"><style>
.MsftOfcThm_Accent6_lumMod_25_Fill_v2 {
 fill:#1C2B12; 
}
</style>
<path d="M19 1 5 1C2.23995 1.00331 0.00330612 3.23995 1.77636e-15 6L0 18C0.00330612 20.7601 2.23995 22.9967 5 23L19 23C21.7601 22.9967 23.9967 20.7601 24 18L24 6C23.9967 3.23995 21.7601 1.00331 19 1ZM5 3 19 3C20.225 3.00241 21.3255 3.7494 21.78 4.887L14.122 12.546C12.9487 13.7146 11.0513 13.7146 9.878 12.546L2.22 4.887C2.67448 3.7494 3.77498 3.00241 5 3ZM19 21 5 21C3.34315 21 2 19.6569 2 18L2 7.5 8.464 13.96C10.4183 15.9094 13.5817 15.9094 15.536 13.96L22 7.5 22 18C22 19.6569 20.6569 21 19 21Z" class="MsftOfcThm_Accent6_lumMod_25_Fill_v2" fill="#1C2B12"/></svg>