<svg width="512" height="512" viewBox="0 0 24 24" xmlns="http://www.w3.org/2000/svg" xmlns:xlink="http://www.w3.org/1999/xlink" id="Outline" overflow="hidden"><style>
.MsftOfcThm_Accent6_lumMod_25_Fill_v2 {
 fill:#1C2B12; 
}
</style>
<path d="M17.5 1.917C15.208 1.95265 13.1101 3.21141 12 5.217 10.8899 3.21141 8.79202 1.95265 6.5 1.917 2.76313 2.07936-0.14104 5.22926 5.32907e-15 8.967 0 13.514 4.786 18.48 8.8 21.847 10.6501 23.4017 13.3499 23.4017 15.2 21.847 19.214 18.48 24 13.514 24 8.967 24.141 5.22926 21.2369 2.07936 17.5 1.917ZM13.915 20.317C12.8084 21.2489 11.1916 21.2489 10.085 20.317 4.947 16.006 2 11.87 2 8.967 1.8577 6.33319 3.86726 4.07801 6.5 3.917 9.13274 4.07801 11.1423 6.33319 11 8.967 11 9.51929 11.4477 9.967 12 9.967 12.5523 9.967 13 9.51929 13 8.967 12.8577 6.33319 14.8673 4.07801 17.5 3.917 20.1327 4.07801 22.1423 6.33319 22 8.967 22 11.87 19.053 16.006 13.915 20.313Z" class="MsftOfcThm_Accent6_lumMod_25_Fill_v2" fill="#1C2B12"/></svg>