<svg width="512" height="512" viewBox="0 0 24 24" xmlns="http://www.w3.org/2000/svg" xmlns:xlink="http://www.w3.org/1999/xlink" id="Layer_1" overflow="hidden"><path d="M23 15 22.333 15C22.083 15 21.835 15.019 21.588 15.057L14.542 9.773 16.23 8.157C16.629 7.775 16.643 7.141 16.261 6.743 15.878 6.344 15.244 6.331 14.847 6.712L10.674 10.707C10.466 10.915 10.183 11.022 9.886 10.997 9.588 10.973 9.326 10.822 9.147 10.572 8.873 10.192 8.957 9.597 9.315 9.238L14.018 4.809C14.909 3.972 16.302 3.767 17.392 4.314L19.708 5.472C20.398 5.817 21.172 5.999 21.943 5.999L22.999 5.999C23.552 5.999 23.999 5.552 23.999 4.999 23.999 4.446 23.552 3.999 22.999 3.999L21.943 3.999C21.48 3.999 21.015 3.89 20.601 3.683L18.287 2.525C16.463 1.612 14.134 1.951 12.646 3.353L12.028 3.935 11.328 3.297C10.409 2.46 9.219 1.999 7.938 1.999 7.167 1.999 6.398 2.181 5.711 2.524L3.397 3.682C2.982 3.889 2.517 3.998 2.054 3.998L1 3.998C0.447 3.998 0 4.445 0 4.998 0 5.551 0.447 5.998 1 5.998L2.056 5.998C2.827 5.998 3.601 5.815 4.292 5.471L6.608 4.313C7.63 3.799 9.066 3.938 9.982 4.775L10.569 5.31 7.923 7.802C6.85 8.874 6.679 10.569 7.525 11.74 8.045 12.463 9.078 12.999 9.969 12.999 10.762 12.999 11.523 12.687 12.073 12.136L13.079 11.173 19.425 15.932C19.394 15.954 13.227 20.578 13.227 20.578 12.504 21.14 11.495 21.14 10.757 20.567L4.666 15.999C3.807 15.354 2.741 14.999 1.666 14.999L0.999 14.999C0.446 14.999-0.001 15.446-0.001 15.999-0.001 16.552 0.446 16.999 0.999 16.999L1.666 16.999C2.311 16.999 2.95 17.212 3.466 17.599L9.543 22.157C10.268 22.721 11.137 23.003 12.004 23.003 12.866 23.003 13.727 22.724 14.441 22.168L20.534 17.6C21.049 17.213 21.688 17 22.333 17L23 17C23.553 17 24 16.553 24 16 24 15.447 23.553 15 23 15Z"/></svg>