<svg width="512" height="512" viewBox="0 0 24 24" xmlns="http://www.w3.org/2000/svg" xmlns:xlink="http://www.w3.org/1999/xlink" id="Layer_1" overflow="hidden"><style>
.MsftOfcThm_Accent6_lumMod_25_Fill_v2 {
 fill:#1C2B12; 
}
</style>
<path d="M15.045 0C15.018-0.001 8.982-0.001 8.955 0 6.219 0.024 4 2.258 4 4.999L4 18.999C4 21.756 6.243 23.999 9 23.999L15 23.999C17.757 23.999 20 21.756 20 18.999L20 5C20 2.258 17.781 0.025 15.045 0ZM18 18.999C18 20.653 16.654 21.999 15 21.999L9 21.999C7.346 21.999 6 20.653 6 18.999L6 5C6 3.547 7.038 2.333 8.411 2.058L9.105 3.447C9.274 3.786 9.621 4 10 4L14 4C14.379 4 14.725 3.786 14.895 3.447L15.589 2.058C16.962 2.332 18 3.547 18 5L18 19ZM13 19.999 11 19.999C10.448 19.999 10 19.551 10 18.999L10 18.999C10 18.447 10.448 17.999 11 17.999L13 17.999C13.552 17.999 14 18.447 14 18.999L14 18.999C14 19.551 13.552 19.999 13 19.999Z" class="MsftOfcThm_Accent6_lumMod_25_Fill_v2" fill="#1C2B12"/></svg>