<svg width="512" height="512" viewBox="0 0 24 24" xmlns="http://www.w3.org/2000/svg" xmlns:xlink="http://www.w3.org/1999/xlink" id="Outline" overflow="hidden"><style>
.MsftOfcThm_Accent6_lumMod_25_Fill_v2 {
 fill:#1C2B12; 
}
</style>
<path d="M22.773 7.721C21.8242 6.62759 20.4477 5.99969 19 6L15.011 6 15.347 3.959C15.6207 2.3042 14.5011 0.740818 12.8463 0.467095 11.5255 0.248608 10.2173 0.920847 9.626 2.122L7.712 6 5 6C2.23995 6.00331 0.00330612 8.23995 1.77636e-15 11L0 16C0.00330612 18.7601 2.23995 20.9967 5 21L18.3 21C20.7872 20.9898 22.8926 19.1613 23.251 16.7L23.956 11.7C24.1569 10.2649 23.7253 8.81324 22.773 7.721ZM2 16 2 11C2 9.34315 3.34315 8 5 8L7 8 7 19 5 19C3.34315 19 2 17.6569 2 16ZM21.971 11.419 21.265 16.419C21.0517 17.8946 19.7909 18.9921 18.3 19L9 19 9 7.734C9.09424 7.6519 9.17226 7.55285 9.23 7.442L11.419 3.007C11.7055 2.49017 12.3568 2.30347 12.8736 2.59 12.9734 2.6453 13.0636 2.7162 13.141 2.8 13.3399 3.03131 13.4253 3.33927 13.374 3.64L12.846 6.84C12.7576 7.38517 13.1279 7.89875 13.6731 7.98712 13.726 7.99569 13.7794 7.99999 13.833 8L19 8C20.6569 7.99978 22.0002 9.34274 22.0004 10.9996 22.0004 11.1399 21.9906 11.2801 21.971 11.419Z" class="MsftOfcThm_Accent6_lumMod_25_Fill_v2" fill="#1C2B12"/></svg>