<svg width="512" height="512" viewBox="0 0 24 24" xmlns="http://www.w3.org/2000/svg" xmlns:xlink="http://www.w3.org/1999/xlink" id="Outline" overflow="hidden"><style>
.MsftOfcThm_Accent6_lumMod_25_Fill_v2 {
 fill:#1C2B12; 
}
</style>
<path d="M12 12C15.3137 12 18 9.31371 18 6 18 2.68629 15.3137-1.77636e-15 12 -8.88178e-16 8.68629-2.66454e-15 6 2.68629 6 6 6.00331 9.31234 8.68766 11.9967 12 12ZM12 2C14.2091 2 16 3.79086 16 6 16 8.20914 14.2091 10 12 10 9.79086 10 8 8.20914 8 6 8 3.79086 9.79086 2 12 2Z" class="MsftOfcThm_Accent6_lumMod_25_Fill_v2" fill="#1C2B12"/><path d="M12 14C7.03172 14.0055 3.00551 18.0317 3 23 3 23.5523 3.44772 24 4 24 4.55228 24 5 23.5523 5 23 5 19.134 8.13401 16 12 16 15.866 16 19 19.134 19 23 19 23.5523 19.4477 24 20 24 20.5523 24 21 23.5523 21 23 20.9945 18.0317 16.9683 14.0055 12 14Z" class="MsftOfcThm_Accent6_lumMod_25_Fill_v2" fill="#1C2B12"/></svg>