<svg xmlns="http://www.w3.org/2000/svg" width="248" height="43" viewBox="0 0 248 43" fill="none">
  <title>E-comPilot dark logo</title>
  <g fill="#0E1126">
    <rect x="9" y="7" width="42" height="27" rx="13.5" fill="none" stroke="#0E1126" stroke-width="4"/>
    <circle cx="37" cy="20.5" r="6"/>
  </g>
  <g fill="#0E1126" transform="translate(63.22 31.26) scale(0.032 -0.032)">
    <path d="M207 109H613V0H87V714H600V605H207V421H518V314H207Z"/>
    <path transform="translate(659 0)" d="M336 230H48V329H336Z"/>
    <path transform="translate(1043 0)" d="M412 163H524Q512 83 451.5 35.0Q391 -13 300 -13Q183 -13 115.5 61.5Q48 136 48.0 255.0Q48 374 115.5 448.0Q183 522 300 522Q392 522 450.5 476.0Q509 430 520 354H408Q383 426 301 426Q230 426 195.5 378.0Q161 330 161 256Q161 180 195.5 131.5Q230 83 301 83Q395 83 412 163Z"/>
    <path transform="translate(1611 0)" d="M562 255Q562 136 492.5 61.5Q423 -13 305.0 -13.0Q187 -13 117.5 61.5Q48 136 48 255Q48 373 117.5 447.5Q187 522 305.0 522.0Q423 522 492.5 447.5Q562 373 562 255ZM449 255Q449 327 412.0 376.5Q375 426 305.0 426.0Q235 426 198.0 376.5Q161 327 161 255Q161 182 198.0 132.5Q235 83 305.0 83.0Q375 83 412.0 132.5Q449 182 449 255Z"/>
    <path transform="translate(2221 0)" d="M636 522Q723 522 765.5 470.0Q808 418 808 325V0H695V306Q695 421 608 421Q556 421 528.0 385.0Q500 349 500 290V0H387V305Q387 421 300 421Q246 421 218.5 380.5Q191 340 191 277V0H78V509H187V463H211Q249 522 339 522Q430 522 471 460H495Q542 522 636 522Z"/>
    <path transform="translate(3100 0)" d="M87 714H401Q520 714 585.5 655.5Q651 597 651 494Q651 388 585.5 329.5Q520 271 401 271H207V0H87ZM207 377H383Q529 377 529 493Q529 550 495.0 579.0Q461 608 383 608H207Z"/>
    <path transform="translate(3801 0)" d="M194 618H78V727H194ZM192 509V0H79V509Z"/>
    <path transform="translate(4073 0)" d="M78 727H191V0H78Z"/>
    <path transform="translate(4342 0)" d="M562 255Q562 136 492.5 61.5Q423 -13 305.0 -13.0Q187 -13 117.5 61.5Q48 136 48 255Q48 373 117.5 447.5Q187 522 305.0 522.0Q423 522 492.5 447.5Q562 373 562 255ZM449 255Q449 327 412.0 376.5Q375 426 305.0 426.0Q235 426 198.0 376.5Q161 327 161 255Q161 182 198.0 132.5Q235 83 305.0 83.0Q375 83 412.0 132.5Q449 182 449 255Z"/>
    <path transform="translate(4952 0)" d="M219 509H339V413H219V165Q219 98 297 98H339V0H295Q203 0 154.5 34.0Q106 68 106 150V413H25V509H106V657H219Z"/>
  </g>
</svg>
