<svg width="54" height="55" xmlns="http://www.w3.org/2000/svg" xmlns:xlink="http://www.w3.org/1999/xlink" overflow="hidden"><defs><clipPath id="clip0"><rect x="723" y="74" width="54" height="55"/></clipPath><clipPath id="clip1"><rect x="723" y="79" width="54" height="44"/></clipPath><clipPath id="clip2"><rect x="719" y="79" width="248" height="44"/></clipPath></defs><g clip-path="url(#clip0)" transform="translate(-723 -74)"><g clip-path="url(#clip1)"><g clip-path="url(#clip2)"><path d="M37.346 6.97125C44.7712 6.97125 50.7905 12.9906 50.7905 20.4158L50.7905 20.4158C50.7905 27.841 44.7712 33.8603 37.346 33.8603L22.4076 33.8603C14.9824 33.8603 8.96303 27.841 8.96303 20.4158L8.96303 20.4158C8.96303 12.9906 14.9824 6.97125 22.4076 6.97125Z" stroke="#0E1126" stroke-width="3.98357" fill="none" transform="matrix(1 0 0 1.00211 719.053 79.7637)"/><path d="M42.8234 20.4158C42.8234 23.7159 40.1481 26.3912 36.848 26.3912 33.5479 26.3912 30.8727 23.7159 30.8727 20.4158 30.8727 17.1157 33.5479 14.4404 36.848 14.4404 40.1481 14.4404 42.8234 17.1157 42.8234 20.4158Z" fill="#0E1126" transform="matrix(1 0 0 1.00211 719.053 79.7637)"/><path d="M6.59679 3.47367 19.5354 3.47367 19.5354 0 2.77256 0 2.77256 22.7542 19.1211 22.7542 19.1211 19.2805 6.59679 19.2805 6.59679 13.4167 16.5079 13.4167 16.5079 10.0067 6.59679 10.0067Z" fill="#0E1126" transform="matrix(1 0 0 -1.00211 782.014 110.961)"/><path d="M10.7078 7.32977 1.52969 7.32977 1.52969 10.4848 10.7078 10.4848Z" fill="#0E1126" transform="matrix(1 0 0 -1.00211 803.015 110.961)"/><path d="M13.1298 5.19457 16.6991 5.19457C16.4442 3.49492 15.674 2.13519 14.3887 1.1154 13.1033 0.0956057 11.4939-0.414291 9.56057-0.414291 7.07482-0.414291 5.1149 0.377111 3.68082 1.95992 2.24673 3.54272 1.52969 5.59824 1.52969 8.12648 1.52969 10.6547 2.24673 12.7049 3.68082 14.2771 5.1149 15.8493 7.07482 16.6354 9.56057 16.6354 11.5152 16.6354 13.1139 16.1467 14.3568 15.1694 15.5997 14.1921 16.3379 12.8961 16.5716 11.2815L13.0024 11.2815C12.4712 12.8112 11.3346 13.576 9.59244 13.576 8.08399 13.576 6.96328 13.0661 6.2303 12.0463 5.49733 11.0265 5.13084 9.73053 5.13084 8.15835 5.13084 6.54368 5.49733 5.22113 6.2303 4.19072 6.96328 3.1603 8.08399 2.64509 9.59244 2.64509 11.5895 2.64509 12.7687 3.49492 13.1298 5.19457Z" fill="#0E1126" transform="matrix(1 0 0 -1.00211 815.252 110.961)"/><path d="M17.9101 8.12648C17.9101 5.59824 17.1718 3.54272 15.6953 1.95992 14.2187 0.377111 12.2269-0.414291 9.71991-0.414291 7.21292-0.414291 5.22113 0.377111 3.74456 1.95992 2.26798 3.54272 1.52969 5.59824 1.52969 8.12648 1.52969 10.6335 2.26798 12.6784 3.74456 14.2612 5.22113 15.844 7.21292 16.6354 9.71991 16.6354 12.2269 16.6354 14.2187 15.844 15.6953 14.2612 17.1718 12.6784 17.9101 10.6335 17.9101 8.12648ZM14.309 8.12648C14.309 9.65617 13.9159 10.9468 13.1298 11.9985 12.3438 13.0502 11.2071 13.576 9.71991 13.576 8.23271 13.576 7.09607 13.0502 6.30997 11.9985 5.52388 10.9468 5.13084 9.65617 5.13084 8.12648 5.13084 6.57555 5.52388 5.27425 6.30997 4.22258 7.09607 3.17092 8.23271 2.64509 9.71991 2.64509 11.2071 2.64509 12.3438 3.17092 13.1298 4.22258 13.9159 5.27425 14.309 6.57555 14.309 8.12648Z" fill="#0E1126" transform="matrix(1 0 0 -1.00211 833.354 110.961)"/><path d="M20.2684 16.6354C22.1168 16.6354 23.4924 16.083 24.3954 14.9782 25.2983 13.8734 25.7498 12.3331 25.7498 10.3573L25.7498 0 22.1486 0 22.1486 9.75178C22.1486 12.195 21.2245 13.4167 19.3761 13.4167 18.2713 13.4167 17.4215 13.0342 16.8266 12.2694 16.2317 11.5045 15.9343 10.4954 15.9343 9.24188L15.9343 0 12.3331 0 12.3331 9.71991C12.3331 12.1844 11.4089 13.4167 9.56057 13.4167 8.4133 13.4167 7.54754 12.9864 6.96328 12.126 6.37902 11.2655 6.08689 10.1661 6.08689 8.82759L6.08689 0 2.48575 0 2.48575 16.2211 5.95942 16.2211 5.95942 14.7551 6.72427 14.7551C7.5316 16.0086 8.89133 16.6354 10.8034 16.6354 12.7368 16.6354 14.139 15.9768 15.0101 14.6595L15.7749 14.6595C16.7735 15.9768 18.2713 16.6354 20.2684 16.6354Z" fill="#0E1126" transform="matrix(1 0 0 -1.00211 852.794 110.961)"/><path d="M2.77256 22.7542 12.7793 22.7542C15.3075 22.7542 17.2674 22.1327 18.659 20.8898 20.0506 19.647 20.7464 17.9314 20.7464 15.7431 20.7464 13.491 20.0506 11.7436 18.659 10.5007 17.2674 9.25782 15.3075 8.63638 12.7793 8.63638L6.59679 8.63638 6.59679 0 2.77256 0ZM6.59679 12.0144 12.2057 12.0144C15.3075 12.0144 16.8585 13.2467 16.8585 15.7112 16.8585 16.9222 16.4973 17.8358 15.7749 18.4519 15.0526 19.068 13.8628 19.3761 12.2057 19.3761L6.59679 19.3761Z" fill="#0E1126" transform="matrix(1 0 0 -1.00211 880.806 110.961)"/><path d="M6.1825 19.6948 2.48575 19.6948 2.48575 23.1684 6.1825 23.1684ZM6.11876 16.2211 6.11876 0 2.51762 0 2.51762 16.2211Z" fill="#0E1126" transform="matrix(1 0 0 -1.00211 903.146 110.961)"/><path d="M2.48575 23.1684 6.08689 23.1684 6.08689 0 2.48575 0Z" fill="#0E1126" transform="matrix(1 0 0 -1.00211 911.814 110.961)"/><path d="M17.9101 8.12648C17.9101 5.59824 17.1718 3.54272 15.6953 1.95992 14.2187 0.377111 12.2269-0.414291 9.71991-0.414291 7.21292-0.414291 5.22113 0.377111 3.74456 1.95992 2.26798 3.54272 1.52969 5.59824 1.52969 8.12648 1.52969 10.6335 2.26798 12.6784 3.74456 14.2612 5.22113 15.844 7.21292 16.6354 9.71991 16.6354 12.2269 16.6354 14.2187 15.844 15.6953 14.2612 17.1718 12.6784 17.9101 10.6335 17.9101 8.12648ZM14.309 8.12648C14.309 9.65617 13.9159 10.9468 13.1298 11.9985 12.3438 13.0502 11.2071 13.576 9.71991 13.576 8.23271 13.576 7.09607 13.0502 6.30997 11.9985 5.52388 10.9468 5.13084 9.65617 5.13084 8.12648 5.13084 6.57555 5.52388 5.27425 6.30997 4.22258 7.09607 3.17092 8.23271 2.64509 9.71991 2.64509 11.2071 2.64509 12.3438 3.17092 13.1298 4.22258 13.9159 5.27425 14.309 6.57555 14.309 8.12648Z" fill="#0E1126" transform="matrix(1 0 0 -1.00211 920.387 110.961)"/><path d="M6.97921 16.2211 10.8034 16.2211 10.8034 13.1617 6.97921 13.1617 6.97921 5.25831C6.97921 3.83485 7.8078 3.12312 9.46496 3.12312L10.8034 3.12312 10.8034 0 9.40123 0C7.44662 0 5.95411 0.361177 4.92369 1.08353 3.89328 1.80588 3.37807 3.03814 3.37807 4.78028L3.37807 13.1617 0.796714 13.1617 0.796714 16.2211 3.37807 16.2211 3.37807 20.9376 6.97921 20.9376Z" fill="#0E1126" transform="matrix(1 0 0 -1.00211 939.827 110.961)"/></g></g></g></svg>